# xmcd
#
# Track frame offsets: 
#        150
#        6727
#        31607
#        50885
#        80092
#        113640
#        148905
#        174095
#        202460
#        228567
#        250630
#        268550
#        293417
#
# Disc length: 4243 seconds
#
# Revision: 1
# Processed by: cddbd v1.5.1PL0 Copyright (c) Steve Scherf et al.
# Submitted via: ExactAudioCopy v0.90b4
#
DISCID=ba10910d
DTITLE=张大为 - eMAo 唉嘛噢
DYEAR=1999
DGENRE=New Age
TTITLE0=祈 Introduction
TTITLE1=唉嘛噢 E Ma O
TTITLE2=巴珠 Pahchu (Short Version)
TTITLE3=真言诵 Invocation Chanting
TTITLE4=吉祥香巴拉 Shangba-La
TTITLE5=岗底斯 Khailas
TTITLE6=雪山狮子 Snow Lion
TTITLE7=高原漂泊者 Plateau Wanderer
TTITLE8=降神 God Descending
TTITLE9=央-辛 Yang A
TTITLE10=央-垛 Yang B
TTITLE11=巴珠(国语版) Pahchu (Chinese Version)
TTITLE12=巴珠(藏语版) Pahchu (Tibetan Version)
EXTD=YEAR: 1999
EXTT0=
EXTT1=
EXTT2=
EXTT3=
EXTT4=
EXTT5=
EXTT6=
EXTT7=
EXTT8=
EXTT9=
EXTT10=
EXTT11=
EXTT12=
PLAYORDER=
